<svg width="27" height="27" viewBox="0 0 27 27" fill="none" xmlns="http://www.w3.org/2000/svg">
<path d="M22.8566 4.6752C21.1358 3.88559 19.2904 3.30383 17.3609 2.97064C17.3257 2.96421 17.2906 2.98028 17.2725 3.01242C17.0352 3.43453 16.7723 3.98522 16.5882 4.41806C14.513 4.10737 12.4483 4.10737 10.4156 4.41806C10.2315 3.9756 9.95905 3.43453 9.72065 3.01242C9.70255 2.98135 9.66744 2.96528 9.63231 2.97064C7.7039 3.30277 5.85851 3.88452 4.13655 4.6752C4.12164 4.68163 4.10887 4.69235 4.10039 4.70627C0.600066 9.93568 -0.358819 15.0365 0.111578 20.0742C0.113706 20.0988 0.127541 20.1224 0.146698 20.1374C2.45611 21.8334 4.69317 22.863 6.88869 23.5454C6.92383 23.5562 6.96106 23.5433 6.98342 23.5144C7.50277 22.8051 7.96572 22.0573 8.36266 21.2709C8.38609 21.2248 8.36372 21.1702 8.31585 21.152C7.58152 20.8734 6.8823 20.5338 6.2097 20.1481C6.15649 20.117 6.15224 20.0409 6.20118 20.0045C6.34272 19.8984 6.4843 19.7881 6.61945 19.6767C6.6439 19.6563 6.67797 19.652 6.70672 19.6649C11.1254 21.6823 15.9092 21.6823 20.2758 19.6649C20.3046 19.651 20.3386 19.6553 20.3642 19.6756C20.4994 19.787 20.6409 19.8984 20.7835 20.0045C20.8324 20.0409 20.8292 20.117 20.776 20.1481C20.1034 20.5413 19.4042 20.8734 18.6688 21.1509C18.6209 21.1691 18.5997 21.2248 18.6231 21.2709C19.0285 22.0562 19.4915 22.804 20.0013 23.5133C20.0226 23.5433 20.0608 23.5562 20.096 23.5454C22.3022 22.863 24.5392 21.8334 26.8486 20.1374C26.8688 20.1224 26.8816 20.0999 26.8837 20.0752C27.4467 14.2512 25.9408 9.19215 22.8917 4.70734C22.8843 4.69235 22.8715 4.68163 22.8566 4.6752ZM9.02253 17.0068C7.69219 17.0068 6.59602 15.7854 6.59602 14.2855C6.59602 12.7855 7.67093 11.5642 9.02253 11.5642C10.3847 11.5642 11.4703 12.7963 11.449 14.2855C11.449 15.7854 10.3741 17.0068 9.02253 17.0068ZM17.9941 17.0068C16.6638 17.0068 15.5676 15.7854 15.5676 14.2855C15.5676 12.7855 16.6425 11.5642 17.9941 11.5642C19.3563 11.5642 20.4419 12.7963 20.4206 14.2855C20.4206 15.7854 19.3563 17.0068 17.9941 17.0068Z" fill="white"/>
</svg>
