<svg width="27" height="27" viewBox="0 0 27 27" fill="none" xmlns="http://www.w3.org/2000/svg">
<path d="M19.9036 12.514C19.7873 12.4582 19.6692 12.4046 19.5495 12.3532C19.3411 8.51318 17.2429 6.31477 13.7196 6.29227C13.7037 6.29217 13.6878 6.29217 13.6718 6.29217C11.5645 6.29217 9.81184 7.19169 8.73309 8.82854L10.6708 10.1577C11.4766 8.93507 12.7414 8.67443 13.6728 8.67443C13.6835 8.67443 13.6943 8.67443 13.705 8.67452C14.865 8.68192 15.7404 9.01921 16.307 9.67697C16.7193 10.1558 16.9951 10.8176 17.1316 11.6527C16.1031 11.4779 14.9908 11.4242 13.8016 11.4923C10.4519 11.6853 8.29844 13.6389 8.44307 16.3536C8.51646 17.7306 9.20246 18.9152 10.3746 19.689C11.3657 20.3432 12.642 20.6632 13.9686 20.5907C15.7205 20.4947 17.0948 19.8263 18.0536 18.6041C18.7817 17.676 19.2423 16.4732 19.4456 14.9577C20.2805 15.4616 20.8993 16.1246 21.241 16.9217C21.822 18.2766 21.8559 20.5031 20.0392 22.3183C18.4475 23.9085 16.5341 24.5964 13.6425 24.6177C10.435 24.5939 8.00913 23.5652 6.43192 21.5602C4.95499 19.6827 4.19171 16.9709 4.16323 13.5C4.19171 10.0291 4.95499 7.31722 6.43192 5.43975C8.00913 3.43475 10.4349 2.40609 13.6425 2.38226C16.8733 2.40628 19.3414 3.43988 20.979 5.45456C21.782 6.44254 22.3874 7.68499 22.7865 9.13364L25.0571 8.52781C24.5734 6.74468 23.8122 5.20815 22.7763 3.93384C20.6769 1.35094 17.6065 0.0274427 13.6504 0H13.6346C9.68648 0.0273473 6.65045 1.35588 4.61085 3.94865C2.79589 6.2559 1.85968 9.46627 1.82822 13.4905L1.82812 13.5L1.82822 13.5095C1.85968 17.5337 2.79589 20.7442 4.61085 23.0514C6.65045 25.6441 9.68648 26.9727 13.6346 27H13.6504C17.1605 26.9757 19.6346 26.0567 21.6728 24.0203C24.3395 21.3562 24.2592 18.0167 23.3803 15.9667C22.7498 14.4966 21.5475 13.3026 19.9036 12.514ZM13.8432 18.2119C12.3751 18.2946 10.8498 17.6356 10.7746 16.2242C10.7189 15.1777 11.5194 14.0099 13.9333 13.8708C14.2097 13.8549 14.481 13.8471 14.7475 13.8471C15.6243 13.8471 16.4445 13.9322 17.1903 14.0953C16.9121 17.569 15.2806 18.133 13.8432 18.2119Z" fill="white"/>
</svg>
