<svg width="168" height="169" viewBox="0 0 168 169" fill="none" xmlns="http://www.w3.org/2000/svg">
<path d="M63.1065 167.42C59.8128 168.891 55.94 167.618 54.1612 164.48L43.9569 146.475C42.9923 144.773 41.3595 143.553 39.4542 143.109L20.2303 138.634C16.8291 137.842 14.5318 134.665 14.8458 131.187L16.7735 109.838C16.9406 107.988 16.3653 106.147 15.1744 104.721L1.62779 88.5019C-0.54215 85.9039 -0.542153 82.1254 1.62779 79.5274L15.1744 63.3083C16.3653 61.8825 16.9406 60.0417 16.7735 58.1915L14.8458 36.8427C14.5318 33.3647 16.8291 30.1873 20.2303 29.3955L39.4542 24.9201C41.3595 24.4765 42.9923 23.2559 43.9569 21.5539L54.1612 3.54936C55.94 0.410817 59.8128 -0.861842 63.1065 0.609749L81.0245 8.6151C82.8415 9.42692 84.9182 9.42692 86.7353 8.6151L104.653 0.60975C107.947 -0.861842 111.82 0.410816 113.599 3.54936L123.803 21.5539C124.767 23.2559 126.4 24.4765 128.306 24.9201L147.53 29.3955C150.931 30.1873 153.228 33.3647 152.914 36.8427L150.986 58.1915C150.819 60.0417 151.394 61.8825 152.585 63.3083L166.132 79.5274C168.302 82.1254 168.302 85.9039 166.132 88.5019L152.585 104.721C151.394 106.147 150.819 107.988 150.986 109.838L152.914 131.187C153.228 134.665 150.931 137.842 147.53 138.634L128.306 143.109C126.4 143.553 124.767 144.773 123.803 146.475L113.599 164.48C111.82 167.618 107.947 168.891 104.653 167.42L86.7353 159.414C84.9182 158.602 82.8415 158.602 81.0245 159.414L63.1065 167.42ZM70.6073 107.786C73.3649 110.675 77.9767 110.675 80.7343 107.786L115.31 71.564C117.859 68.8932 117.896 64.7016 115.394 61.9867L113.956 60.4263C111.216 57.454 106.536 57.413 103.745 60.3369L80.675 84.5054C77.9398 87.3709 73.3739 87.3977 70.6052 84.5646L63.9273 77.7313C61.1586 74.8983 56.5926 74.9251 53.8574 77.7905L52.5299 79.1813C49.9479 81.8863 49.9479 86.143 52.5299 88.848L70.6073 107.786Z" fill="#3897F0"/>
</svg>
